/* XPM */
static char *_0d7b68484184018a11396fa63544171iVlf9C8ICoGXDPss[] = {
/* columns rows colors chars-per-pixel */
"32 32 8 1 ",
"  c #77514C",
". c #25131A",
"X c #724736",
"o c #523B40",
"O c #895A45",
"+ c #BF704D",
"@ c #90919E",
"# c #ADC1CF",
/* pixels */
"                                ",
"                                ",
"  ............................  ",
"  ............................  ",
"  .@########@..@########@.      ",
"  .@########@..@########@.      ",
"  .#O++++++O@..#O++++++O@.      ",
"  .#O++++++O@..#O++++++O@.      ",
"  .@########@..@########@.      ",
"  .@########@..@########@.      ",
"  ....@@@@........@@@@....      ",
"  ....@@@@........@@@@....      ",
"  .#OooooooO#..#OooooooO#.      ",
"  .#OooooooO#..#OooooooO#.      ",
"   .@@oOoo@@...@@oOoo@@.        ",
"   .@@oOoo@@...@@oOoo@@.        ",
"   .@@oXoo@@...@@oXoo@@.        ",
"   .@@oXoo@@...@@oXoo@@.        ",
"   .@@oXoo@@...@@oXoo@@.        ",
"   .@@oXoo@@...@@oXoo@@.        ",
"  .#XooooooX#..#XooooooX#.      ",
"  .#XooooooX#..#XooooooX#.      ",
"  .##@@@@@@##..##@@@@@@##.      ",
"  .##@@@@@@##..##@@@@@@##.      ",
"  ............................  ",
"  ............................  ",
"                                ",
"                                ",
"                                ",
"                                ",
"                                ",
"                                "
};

